<?xml version="1.0" encoding="UTF-8" standalone="no"?>
<!-- Created with Inkscape (http://www.inkscape.org/) -->

<svg
   xmlns:dc="http://purl.org/dc/elements/1.1/"
   xmlns:cc="http://creativecommons.org/ns#"
   xmlns:rdf="http://www.w3.org/1999/02/22-rdf-syntax-ns#"
   xmlns:svg="http://www.w3.org/2000/svg"
   xmlns="http://www.w3.org/2000/svg"
   xmlns:sodipodi="http://sodipodi.sourceforge.net/DTD/sodipodi-0.dtd"
   xmlns:inkscape="http://www.inkscape.org/namespaces/inkscape"
   id="svg5873"
   height="1750"
   width="1750"
   version="1.1"
   inkscape:version="0.91+devel r"
   sodipodi:docname="redesigned.svg">
  <defs
     id="defs8238" />
  <sodipodi:namedview
     pagecolor="#ffffff"
     bordercolor="#666666"
     borderopacity="1"
     objecttolerance="10"
     gridtolerance="10"
     guidetolerance="10"
     inkscape:pageopacity="0"
     inkscape:pageshadow="2"
     inkscape:window-width="1600"
     inkscape:window-height="820"
     id="namedview8236"
     showgrid="false"
     inkscape:zoom="0.2697"
     inkscape:cx="1508.9108"
     inkscape:cy="811.76825"
     inkscape:window-x="0"
     inkscape:window-y="28"
     inkscape:window-maximized="1"
     inkscape:current-layer="svg5873"
     showguides="true"
     inkscape:guide-bbox="true">
    <sodipodi:guide
       orientation="1,0"
       position="875,1542.4"
       id="guide9294" />
    <sodipodi:guide
       orientation="0,1"
       position="786.02,875"
       id="guide9296" />
  </sodipodi:namedview>
  <metadata
     id="metadata5878">
    <rdf:RDF>
      <cc:Work
         rdf:about="">
        <dc:format>image/svg+xml</dc:format>
        <dc:type
           rdf:resource="http://purl.org/dc/dcmitype/StillImage" />
        <dc:title />
      </cc:Work>
    </rdf:RDF>
  </metadata>
  <path
     style="fill:#deffff;stroke:#000000;stroke-width:7.9823622;stroke-linecap:round;stroke-linejoin:round;stroke-miterlimit:4;stroke-dasharray:none;fill-opacity:1"
     inkscape:connector-curvature="0"
     stroke-miterlimit="4"
     d="m 1748.2786,876.48779 c 0,483.00001 -392,875.00001 -875.00005,875.00001 -483,0 -875,-392 -875,-875.00001 0,-483 392,-875 875,-875 483.00005,0 875.00005,392 875.00005,875 z"
     id="path3119" />
  <path
     style="opacity:1;fill:#333366;fill-opacity:1;stroke:none;stroke-width:3.44560122;stroke-linecap:round;stroke-linejoin:round;stroke-miterlimit:4;stroke-dasharray:none;stroke-dashoffset:0;stroke-opacity:1"
     d="m 875.00002,109.16585 c -422.74045,0 -765.83415,343.0937 -765.83415,765.83414 0,422.74041 343.0937,765.83411 765.83415,765.83411 422.74048,0 765.83408,-343.0937 765.83408,-765.83411 0,-422.74044 -343.0936,-765.83414 -765.83408,-765.83414 z m 0,176.34699 c 325.39708,0 589.48718,264.09005 589.48718,589.48715 0,325.39711 -264.0901,589.48881 -589.48718,589.48881 -325.39706,0 -589.48713,-264.0917 -589.48713,-589.48881 0,-325.3971 264.09007,-589.48715 589.48713,-589.48715 z"
     id="path3119-0"
     inkscape:connector-curvature="0" />
  <g
     id="g4881"
     style="fill:#ff4141;stroke:#550000;stroke-width:7.55905512;stroke-miterlimit:4;stroke-dasharray:none">
    <path
       inkscape:connector-curvature="0"
       id="path3119-0-5-9"
       d="m 109.93852,823.03191 178.8372,12.5008 c -1.1139,14.91823 -1.6857,29.98683 -1.6857,45.18831 0,12.3524 0.3839,24.61576 1.1219,36.78363 l -178.3766,13.07858 a 753.04196,753.04196 0 0 1 -0.2959,-101.81715 c 0.1262,-1.91329 0.259,-3.82468 0.3991,-5.73416 z"
       style="opacity:1;fill:#ff4141;fill-opacity:1;stroke:#550000;stroke-width:7.55905512;stroke-linecap:round;stroke-linejoin:round;stroke-miterlimit:4;stroke-dasharray:none;stroke-dashoffset:0;stroke-opacity:1" />
    <path
       inkscape:connector-curvature="0"
       id="path3119-0-5"
       d="m 1638.857,821.22434 -178.8372,12.5008 c 1.1139,14.91823 1.6857,29.98683 1.6857,45.18831 0,12.3524 -0.3839,24.61576 -1.1219,36.78363 l 178.3766,13.07858 a 753.04196,753.04196 0 0 0 0.2959,-101.81715 c -0.1262,-1.91329 -0.259,-3.82468 -0.3991,-5.73416 z"
       style="opacity:1;fill:#ff4141;fill-opacity:1;stroke:#550000;stroke-width:7.55905512;stroke-linecap:round;stroke-linejoin:round;stroke-miterlimit:4;stroke-dasharray:none;stroke-dashoffset:0;stroke-opacity:1" />
    <path
       inkscape:connector-curvature="0"
       id="path3119-0-5-9-7-9-5-7-6-9"
       d="m 929.46596,110.20466 -12.5008,178.8372 c -14.91833,-1.114 -29.98684,-1.6858 -45.18837,-1.6858 -12.35237,10e-5 -24.61573,0.3839 -36.78365,1.122 l -13.07855,-178.3767 a 753.04196,753.04196 0 0 1 101.81716,-0.2958 c 1.91329,0.1261 3.82467,0.259 5.73421,0.3991 z"
       style="opacity:1;fill:#ff4141;fill-opacity:1;stroke:#550000;stroke-width:7.55905512;stroke-linecap:round;stroke-linejoin:round;stroke-miterlimit:4;stroke-dasharray:none;stroke-dashoffset:0;stroke-opacity:1" />
    <path
       inkscape:connector-curvature="0"
       id="path3119-0-5-9-7-9"
       d="m 1389.1017,307.15514 -121.1528,132.14019 c 11.0745,10.05738 21.8591,20.59691 32.3203,31.62635 8.5005,8.96229 16.6613,18.12416 24.4993,27.46044 l 138.4216,-113.26408 a 753.04196,753.04196 0 0 0 -69.8528,-74.07711 c -1.4082,-1.30134 -2.8199,-2.59676 -4.2356,-3.88578 z"
       style="opacity:1;fill:#ff4141;fill-opacity:1;stroke:#550000;stroke-width:7.55905512;stroke-linecap:round;stroke-linejoin:round;stroke-miterlimit:4;stroke-dasharray:none;stroke-dashoffset:0;stroke-opacity:1" />
    <path
       inkscape:connector-curvature="0"
       id="path3119-0-5-9-7"
       d="m 372.23276,296.0898 117.6176,135.2964 c -11.33643,9.76114 -22.39586,20.01192 -33.14493,30.76099 -8.73447,8.73447 -17.13451,17.67743 -25.21665,26.80326 L 296.10952,372.0671 a 753.04196,753.04196 0 0 1 71.78637,-72.20483 c 1.44213,-1.26367 2.88759,-2.52132 4.33687,-3.77246 z"
       style="opacity:1;fill:#ff4141;fill-opacity:1;stroke:#550000;stroke-width:7.55905512;stroke-linecap:round;stroke-linejoin:round;stroke-miterlimit:4;stroke-dasharray:none;stroke-dashoffset:0;stroke-opacity:1" />
    <path
       inkscape:connector-curvature="0"
       id="path3119-0-5-9-7-9-5-7"
       d="m 369.90509,1453.1563 117.6176,-135.2964 c -11.3365,-9.7612 -22.3959,-20.0119 -33.145,-30.761 -8.7344,-8.7345 -17.1345,-17.6774 -25.2166,-26.8033 l -135.3793,116.8834 a 753.04196,753.04196 0 0 0 71.7864,72.2048 c 1.4421,1.2637 2.8876,2.5213 4.3369,3.7725 z"
       style="opacity:1;fill:#ff4141;fill-opacity:1;stroke:#550000;stroke-width:7.55905512;stroke-linecap:round;stroke-linejoin:round;stroke-miterlimit:4;stroke-dasharray:none;stroke-dashoffset:0;stroke-opacity:1" />
    <path
       inkscape:connector-curvature="0"
       id="path3119-0-5-9-7-9-5-7-6"
       d="m 929.46596,1639.4636 -12.5008,-178.8372 c -14.91833,1.114 -29.98684,1.6858 -45.18837,1.6858 -12.35237,-10e-5 -24.61573,-0.3839 -36.78365,-1.122 l -13.07855,178.3767 a 753.04196,753.04196 0 0 0 101.81716,0.2958 c 1.91329,-0.1261 3.82467,-0.259 5.73421,-0.3991 z"
       style="opacity:1;fill:#ff4141;fill-opacity:1;stroke:#550000;stroke-width:7.55905512;stroke-linecap:round;stroke-linejoin:round;stroke-miterlimit:4;stroke-dasharray:none;stroke-dashoffset:0;stroke-opacity:1" />
    <path
       inkscape:connector-curvature="0"
       id="path3119-0-5-9-7-9-5"
       d="m 1398.2789,1433.5046 -121.6825,-131.6525 c 11.0341,-10.1019 21.7763,-20.6846 32.1931,-31.756 8.4644,-8.9963 16.5883,-18.1909 24.3888,-27.5586 l 138.8753,112.7073 a 753.04196,753.04196 0 0 1 -69.5547,74.357 c -1.4029,1.307 -2.8094,2.6081 -4.22,3.9028 z"
       style="opacity:1;fill:#ff4141;fill-opacity:1;stroke:#550000;stroke-width:7.55905512;stroke-linecap:round;stroke-linejoin:round;stroke-miterlimit:4;stroke-dasharray:none;stroke-dashoffset:0;stroke-opacity:1" />
  </g>
  <a
     style="fill:#ffff00"
     transform="matrix(-0.00202768,-0.99999794,0.99999794,-0.00202768,16.64368,1749.3168)"
     id="a5204-02" />
  <a
     style="fill:#ffff00"
     transform="matrix(-0.71344687,-0.70070933,0.70070933,-0.71344687,894.07003,2101.9445)"
     id="a5204-8-91" />
  <a
     style="fill:#ffff00"
     transform="matrix(-0.9999823,0.0059488,-0.0059488,-0.9999823,1752.6831,1733.6286)"
     id="a5204-96" />
  <a
     style="fill:#ffff00"
     transform="matrix(-0.69877991,0.71533674,-0.71533673,-0.69877992,2101.8935,856.32125)"
     id="a5204-8-92" />
  <a
     style="fill:#ffff00"
     transform="matrix(0.01463504,0.99989287,-0.99989283,0.01463504,1725.9883,-6.39254)"
     id="a5204-38" />
  <a
     style="fill:#ffff00"
     transform="matrix(0.99999992,-4.0244159e-4,4.0244159e-4,0.99999992,5.78237,15.22687)"
     id="a5204-51" />
  <g
     transform="translate(-7.0496287e-7,-1.7078e-5)"
     id="g8699">
    <a
       id="a5204-51-7"
       transform="matrix(0.99074366,0.13574606,-0.13574606,0.99074366,130.36514,-96.06521)"
       style="fill:#ff0000" />
    <a
       id="a5204-02-1"
       transform="matrix(0.13413569,-0.99096297,0.99096297,0.13413569,-94.96195,1623.3572)"
       style="fill:#ff0000" />
    <a
       id="a5204-8-91-1"
       transform="matrix(-0.61140602,-0.79131705,0.79131705,-0.61140602,726.28622,2092.1586)"
       style="fill:#ff0000" />
    <a
       id="a5204-96-1"
       transform="matrix(-0.99148131,-0.13024895,0.13024895,-0.99148131,1627.0489,1844.1678)"
       style="fill:#ff0000" />
    <a
       id="a5204-8-92-7"
       transform="matrix(-0.78966289,0.61354097,-0.61354096,-0.7896629,2092.4487,1022.5723)"
       style="fill:#ff0000" />
    <a
       id="a5204-38-2"
       transform="matrix(-0.12163141,0.9925753,-0.99257526,-0.12163141,1837.4975,116.7137)"
       style="fill:#ff0000" />
    <a
       id="a5204-8-8-6"
       transform="matrix(0.60565001,0.79573114,-0.79573114,0.60565001,1034.5639,-338.78737)"
       style="fill:#ff0000" />
  </g>
  <g
     id="g4867">
    <g
       style="stroke:none"
       transform="matrix(0.87523902,0,0,0.87523902,150.47091,72.450254)"
       id="g4403">
      <path
         style="font-style:normal;font-variant:normal;font-weight:bold;font-stretch:normal;font-size:155.6546936px;line-height:125%;font-family:'Courier New';letter-spacing:0px;word-spacing:0px;fill:#ffffff;stroke:none"
         inkscape:connector-curvature="0"
         d="m 1288.43,363.33787 58.6666,-62.7458 12.3446,11.5421 -13.4902,65.96827 39.2022,-41.92793 11.7602,10.99573 -58.6666,62.7458 -12.7099,-11.88358 12.9724,-64.53586 -38.246,40.90529 -11.7603,-10.99572"
         id="path7178" />
      <path
         style="font-style:normal;font-variant:normal;font-weight:bold;font-stretch:normal;font-size:155.6546936px;line-height:125%;font-family:'Courier New';letter-spacing:0px;word-spacing:0px;fill:#ffffff;stroke:none"
         inkscape:connector-curvature="0"
         d="m 1378.4249,388.61449 c 5.976,-6.39145 11.9527,-10.86559 17.8959,-13.38589 4.409,-1.86029 9.036,-2.91428 13.8807,-3.1761 4.8603,-0.2199 9.3255,0.43664 13.3873,1.93451 5.4583,1.99573 10.7223,5.37055 15.8355,10.1513 9.2766,8.67372 13.9702,18.44227 14.1467,29.38145 0.2048,10.93823 -4.5126,21.51828 -14.0741,31.74461 -9.4932,10.15322 -19.623,15.46738 -30.5187,16.09523 -10.8416,0.55527 -20.8466,-3.47389 -30.0503,-12.07924 -9.3498,-8.74194 -14.0706,-18.48134 -14.2881,-29.3767 -0.1737,-10.85438 4.449,-21.3039 13.7373,-31.23804 m 13.4753,11.79702 c -6.6452,7.10727 -10.0351,14.02739 -10.1702,20.74616 -0.1351,6.71877 2.3283,12.44462 7.3685,17.15708 5.0474,4.71929 10.8974,6.79383 17.4989,6.17583 6.6653,-0.61307 13.4165,-4.56844 20.1778,-11.79992 6.7203,-7.18769 10.1619,-14.0458 10.2773,-20.5092 0.1646,-6.47213 -2.3394,-12.14003 -7.5986,-17.05737 -5.2228,-4.88314 -11.1029,-7.01333 -17.6771,-6.42455 -6.5323,0.57322 -13.1922,4.50431 -19.8853,11.66273"
         id="path7180" />
    </g>
    <g
       style="stroke:none"
       transform="matrix(0.87523902,0,0,0.87523902,74.744969,159.64982)"
       id="g4399">
      <path
         style="font-style:normal;font-variant:normal;font-weight:bold;font-stretch:normal;font-size:155.6546936px;line-height:125%;font-family:'Courier New';letter-spacing:0px;word-spacing:0px;fill:#ffffff;stroke:none"
         inkscape:connector-curvature="0"
         d="m 446.63948,1422.5633 -12.0259,-11.9865 c 3.71467,-4.3906 5.61689,-8.6202 5.72208,-12.7016 0.0643,-4.0995 -1.59234,-8.1785 -4.95447,-12.2496 -3.55952,-4.3102 -7.13609,-6.8036 -10.73739,-7.4739 -3.6499,-0.682 -6.70401,-0.014 -9.14055,1.9978 -1.5652,1.2927 -2.50558,2.8551 -2.81973,4.689 -0.37301,1.8255 -0.0187,4.2175 1.06287,7.1762 0.75058,2.0128 2.73731,6.3769 5.95961,13.1055 4.14851,8.6354 6.0977,15.4557 5.92667,20.5252 -0.29133,7.0754 -3.05926,12.7851 -8.30244,17.1152 -3.36951,2.7826 -7.30635,4.4386 -11.75655,4.9233 -4.54506,0.5112 -9.06209,-0.3885 -13.54473,-2.6913 -4.52084,-2.3491 -8.86416,-6.0379 -13.06683,-11.1269 -6.87703,-8.3274 -10.21521,-16.0757 -10.00666,-23.2513 0.16397,-7.2296 3.17097,-13.4351 9.09038,-18.6737 l 11.60362,12.854 c -2.92787,3.3803 -4.35456,6.631 -4.26083,9.744 0.0374,3.1077 1.60599,6.546 4.74525,10.3474 3.20936,3.886 6.52007,6.2618 9.91184,7.1181 2.19716,0.5718 4.14909,0.14 5.86084,-1.2736 1.56526,-1.2926 2.3599,-3.063 2.37434,-5.3069 0.0242,-2.8603 -1.8843,-8.1708 -5.69875,-15.9148 -3.83991,-7.7749 -6.22999,-13.9198 -7.11929,-18.3731 -0.95835,-4.4741 -0.73313,-8.7713 0.68839,-12.8763 1.36521,-4.1104 4.13486,-7.9021 8.36025,-11.3916 3.79365,-3.1328 8.22053,-5.012 13.25132,-5.626 5.05391,-0.6331 9.98558,0.3132 14.79635,2.8249 4.77992,2.5372 9.52978,6.6555 14.30553,12.4384 6.94076,8.4045 10.2983,16.3962 10.13627,24.0521 -0.18013,7.6969 -3.63915,15.0668 -10.34084,22.0279"
         id="path7191" />
      <path
         style="font-style:normal;font-variant:normal;font-weight:bold;font-stretch:normal;font-size:155.6546936px;line-height:125%;font-family:'Courier New';letter-spacing:0px;word-spacing:0px;fill:#ffffff;stroke:none"
         inkscape:connector-curvature="0"
         d="m 406.46259,1329.9414 -53.17996,70.505 -11.33446,-13.7248 37.27799,-47.5159 -55.48954,25.4637 -13.11741,-15.8837 36.64816,-49.849 -54.66869,28.0281 -11.14343,-13.4935 79.54214,-38.5832 11.71652,14.1874 -38.61306,54.0655 60.39051,-27.6954 11.97123,14.4958"
         id="path7193" />
    </g>
    <g
       transform="matrix(0.87523902,0,0,0.87523902,109.16585,109.16586)"
       style="stroke:none"
       id="g4407">
      <path
         style="font-style:normal;font-variant:normal;font-weight:bold;font-stretch:normal;font-size:155.6546936px;line-height:125%;font-family:'Courier New';letter-spacing:0px;word-spacing:0px;fill:#ffffff;stroke:none"
         inkscape:connector-curvature="0"
         d="m 303.15267,424.43512 -60.74047,-60.74048 11.9501,-11.9501 65.47809,15.69777 -40.58793,-40.58793 11.38442,-11.38442 60.74047,60.74047 -12.30365,12.30366 -64.06388,-15.13208 39.59798,39.59798 -11.38442,11.38442"
         id="path7183" />
      <path
         style="font-style:normal;font-variant:normal;font-weight:bold;font-stretch:normal;font-size:155.6546936px;line-height:125%;font-family:'Courier New';letter-spacing:0px;word-spacing:0px;fill:#ffffff;stroke:none"
         inkscape:connector-curvature="0"
         d="m 373.15624,354.43154 -75.23616,-46.24478 12.5865,-12.5865 50.84098,32.59762 -30.61772,-52.82087 14.5664,-14.5664 53.10372,31.74909 -33.0926,-51.76021 12.37437,-12.37437 45.96194,75.519 -13.01077,13.01077 -57.48778,-33.30473 33.30473,57.48778 -13.29361,13.2936"
         id="path7185" />
    </g>
    <g
       style="stroke:none"
       transform="matrix(0.87523902,0,0,0.87523902,152.76563,145.88147)"
       id="g4411">
      <path
         style="font-style:normal;font-variant:normal;font-weight:bold;font-stretch:normal;font-size:155.6546936px;line-height:125%;font-family:'Courier New';letter-spacing:0px;word-spacing:0px;fill:#ffffff;stroke:none"
         inkscape:connector-curvature="0"
         d="m 1433.2569,1286.055 -10.76,13.1347 c -4.7311,-3.27 -9.1256,-4.7518 -13.1979,-4.4595 -4.0863,0.3347 -7.9848,2.3802 -11.7097,6.1224 -3.9435,3.9619 -6.0772,7.764 -6.394,11.4134 -0.3238,3.699 0.6377,6.6737 2.8773,8.9029 1.4388,1.4321 3.0853,2.216 4.9411,2.3503 1.8531,0.1937 4.1993,-0.3916 7.0387,-1.7558 1.9304,-0.9428 6.0805,-3.3446 12.4638,-7.2061 8.1909,-4.9687 14.7893,-7.572 19.8514,-7.8949 7.0702,-0.3982 13.0221,1.8012 17.8415,6.5984 3.0973,3.0828 5.1283,6.8399 6.0436,11.2219 0.9508,4.4738 0.4947,9.0569 -1.3612,13.7423 -1.8982,4.7279 -5.1471,9.4094 -9.8032,14.0871 -7.6191,7.6544 -15.0059,11.7304 -22.1678,12.2208 -7.2112,0.54 -13.6797,-1.8492 -19.4693,-7.231 l 11.6645,-12.7989 c 3.649,2.5852 7.0231,3.689 10.1122,3.2929 3.0893,-0.3395 6.3588,-2.2351 9.8367,-5.7292 3.5556,-3.572 5.598,-7.0982 6.1203,-10.5572 0.3554,-2.2423 -0.2641,-4.143 -1.8376,-5.7091 -1.4387,-1.4321 -3.2779,-2.0508 -5.5126,-1.8469 -2.8491,0.2541 -7.9488,2.67 -15.2851,7.2196 -7.3645,4.578 -13.2478,7.5544 -17.5935,8.8726 -4.3596,1.389 -8.6584,1.5828 -12.8822,0.5673 -4.2237,-0.9589 -8.2668,-3.3467 -12.1507,-7.2126 -3.487,-3.4709 -5.7879,-7.6941 -6.8883,-12.6413 -1.1217,-4.9683 -0.6595,-9.9687 1.3724,-15.0009 2.0602,-5.0041 5.697,-10.132 10.9879,-15.4476 7.6896,-7.7253 15.3168,-11.8442 22.9523,-12.4276 7.6778,-0.5693 15.3492,2.1564 22.9292,8.1493"
         id="path7199" />
      <path
         style="font-style:normal;font-variant:normal;font-weight:bold;font-stretch:normal;font-size:155.6546936px;line-height:125%;font-family:'Courier New';letter-spacing:0px;word-spacing:0px;fill:#ffffff;stroke:none"
         inkscape:connector-curvature="0"
         d="m 1383.2017,1350.5179 c 6.2016,6.1729 10.4867,12.2865 12.82,18.3056 1.7286,4.472 2.6303,9.1227 2.7406,13.9732 0.068,4.8648 -0.728,9.3073 -2.3521,13.3203 -2.1654,5.3932 -5.7031,10.5492 -10.6413,15.5104 -8.9595,9.001 -18.87,13.3869 -29.8094,13.2214 -10.9392,-0.1373 -21.3667,-5.1831 -31.2891,-15.0596 -9.8515,-9.806 -14.8464,-20.0969 -15.1333,-31.007 -0.2161,-10.8536 4.1238,-20.7278 13.0127,-29.658 9.0299,-9.0719 18.9122,-13.486 29.809,-13.3628 10.8545,0.1658 21.1544,5.1128 30.7933,14.7072 m -12.2125,13.0999 c -6.896,-6.8642 -13.7068,-10.4688 -20.4181,-10.8138 -6.7112,-0.3451 -12.5113,1.9382 -17.379,6.8285 -4.8748,4.8975 -7.1312,10.6798 -6.7198,17.2974 0.4044,6.6812 4.1468,13.5527 11.1633,20.5368 6.9741,6.9417 13.7213,10.596 20.178,10.9134 6.4638,0.3668 12.2072,-1.9588 17.2865,-7.0617 5.044,-5.0676 7.357,-10.8783 6.974,-17.4676 -0.3687,-6.547 -4.0897,-13.3266 -11.0354,-20.2402"
         id="path7201" />
    </g>
  </g>
  <g
     id="g4861"
     style="fill:#fff6d5">
    <path
       id="path7188"
       d="m 246.80483,908.84961 -81.48476,19.43031 0,-16.80459 55.92778,-12.25335 -55.92778,-14.87906 0,-19.51783 56.89054,-14.2664 -56.89054,-12.51592 0,-16.54202 81.48476,19.78041 0,17.41725 -60.91664,16.19193 60.91664,16.19192 0,17.85487"
       inkscape:connector-curvature="0"
       style="font-style:normal;font-variant:normal;font-weight:bold;font-stretch:normal;font-size:155.6546936px;line-height:125%;font-family:'Courier New';letter-spacing:0px;word-spacing:0px;fill:#fff6d5;stroke:none" />
    <path
       id="path7175"
       d="m 840.0245,242.85936 0,-81.48475 16.01688,0 33.34661,54.35234 0,-54.35234 15.31668,0 0,81.48475 -16.54202,0 -32.82146,-53.12701 0,53.12701 -15.31669,0"
       inkscape:connector-curvature="0"
       style="font-style:normal;font-variant:normal;font-weight:bold;font-stretch:normal;font-size:155.6546936px;line-height:125%;font-family:'Courier New';letter-spacing:0px;word-spacing:0px;fill:#fff6d5;stroke:none" />
    <path
       id="path7196"
       d="m 843.83424,1534.4833 16.01687,1.558 c 0.96276,-5.374 2.90579,-9.2776 5.83784,-11.8158 2.96707,-2.5207 6.94065,-3.781 11.90326,-3.781 5.29519,-10e-5 9.27753,1.1115 11.90325,3.3347 2.70448,2.2581 4.05235,4.8925 4.05235,7.8859 -5e-5,1.9255 -0.57415,3.5534 -1.72422,4.8925 -1.11155,1.3742 -3.07209,2.5557 -5.89036,3.5535 -1.92552,0.6669 -6.31922,1.8555 -13.12858,3.5535 -8.83992,2.1881 -14.96659,4.8663 -18.55507,8.0522 -4.99761,4.4812 -7.5008,9.9777 -7.5008,16.367 -10e-6,4.1486 1.16407,8.0171 3.50096,11.6406 2.3719,3.6323 5.75907,6.3893 10.15277,8.2798 4.44622,1.8905 9.80268,2.8358 16.01688,2.8358 10.24029,-10e-5 17.9424,-2.2406 23.01878,-6.7219 5.18142,-4.4812 7.90341,-10.5028 8.16598,-17.9424 l -16.45449,-0.722 c -0.70369,4.1836 -2.22311,7.1857 -4.56,9.0149 -2.29312,1.8555 -5.75907,2.7745 -10.41534,2.7745 -4.77881,-10e-5 -8.51608,-0.9802 -11.20306,-2.9408 -1.74173,-1.2603 -2.60821,-2.9408 -2.60821,-5.0589 -3e-5,-1.9255 0.81484,-3.5709 2.44191,-4.9451 2.07432,-1.7417 7.10694,-3.5534 15.14164,-5.4439 7.99968,-1.8906 13.9163,-3.8511 17.67983,-5.8904 3.85105,-2.0043 6.85312,-4.7613 9.01496,-8.2798 2.1881,-3.4834 3.28214,-7.7983 3.28214,-12.9535 -7e-5,-4.665 -1.29535,-9.015 -3.88606,-13.1286 -2.5907,-4.0698 -6.25796,-7.1069 -11.02801,-9.1025 -4.74379,-1.9605 -10.67791,-2.9408 -17.67983,-2.9408 -10.32782,0 -18.20497,2.3719 -23.71897,7.107 -5.52276,4.7788 -8.83992,11.7282 -9.8902,20.8307"
       inkscape:connector-curvature="0"
       style="font-style:normal;font-variant:normal;font-weight:bold;font-stretch:normal;font-size:155.6546936px;line-height:125%;font-family:'Courier New';letter-spacing:0px;word-spacing:0px;fill:#fff6d5;stroke:none" />
    <path
       id="path7204"
       d="m 1547.5775,835.4567 c 8.2973,-10e-6 15.2292,1.24284 20.9182,3.71977 4.1487,1.8555 7.8684,4.36744 11.2031,7.55331 3.2996,3.22088 5.7415,6.73934 7.3345,10.59039 2.1443,5.07639 3.2209,10.94049 3.2209,17.59231 -10e-5,11.99077 -3.7198,21.6184 -11.2031,28.79536 -7.4483,7.22072 -17.7674,10.85296 -31.071,10.85296 -13.1286,-8e-5 -23.4564,-3.57097 -30.8959,-10.76544 -7.4045,-7.1507 -11.1156,-16.71706 -11.1156,-28.70784 0,-12.07829 3.6848,-21.70592 11.0281,-28.88288 7.4045,-7.15071 17.5923,-10.76544 30.5458,-10.76544 m 0.5558,16.97963 c -9.19,-2e-5 -16.1919,2.12683 -21.0058,6.38925 -4.7438,4.26241 -7.1069,9.62763 -7.1069,16.19192 0,6.55554 2.3544,11.90325 7.0544,16.1044 4.7438,4.21865 11.8157,6.33673 21.2683,6.33673 9.3651,-7e-5 16.2795,-2.05681 20.9182,-6.17044 4.595,-4.07861 6.8882,-9.5401 6.8882,-16.27944 0,-6.77435 -2.3369,-12.25335 -7.0019,-16.36697 -4.6301,-4.14863 -11.6407,-6.22295 -21.0058,-6.22295"
       inkscape:connector-curvature="0"
       style="font-style:normal;font-variant:normal;font-weight:bold;font-stretch:normal;font-size:155.6546936px;line-height:125%;font-family:'Courier New';letter-spacing:0px;word-spacing:0px;fill:#fff6d5;stroke:none" />
  </g>
  <path
     style="fill:#ffffff;stroke:#000080;stroke-width:11.5;stroke-miterlimit:4;stroke-dasharray:none"
     inkscape:connector-curvature="0"
     stroke-miterlimit="4"
     d="m 1074.2786,876.48779 c 0,109 -88.30005,197.00001 -197.00005,197.00001 -108.7,0 -197,-88.30001 -197,-197.00001 0,-108.7 88.3,-197 197,-197 108.7,0 197.00005,88.3 197.00005,197 z"
     id="path3197" />
  <g
     id="g4453"
     style="stroke:#000080;fill:none">
    <path
       id="path3121"
       d="M 69.27855,535.48779 1688.2786,1212.4878"
       style="fill:none;stroke:#000080;stroke-width:13.89889717;stroke-linecap:butt;stroke-linejoin:miter;stroke-miterlimit:4;stroke-dasharray:none"
       inkscape:connector-curvature="0" />
    <path
       sodipodi:nodetypes="cc"
       id="path3123"
       d="M 66.279,1209.5 1681.3,542.33"
       stroke-miterlimit="4"
       inkscape:connector-curvature="0"
       style="fill:none;stroke:#000080;stroke-width:13.952;stroke-linecap:butt;stroke-linejoin:miter;stroke-miterlimit:4;stroke-dasharray:none" />
    <path
       id="path3127"
       d="M 1209.2786,1684.4878 547.27855,66.48779"
       style="fill:none;stroke:#000080;stroke-width:13.9086647;stroke-linecap:butt;stroke-linejoin:miter;stroke-miterlimit:4;stroke-dasharray:none"
       inkscape:connector-curvature="0" />
    <path
       id="path3125"
       d="M 541.27855,1684.4878 1215.2786,71.48779"
       stroke-miterlimit="4"
       inkscape:connector-curvature="0"
       style="fill:none;stroke:#000080;stroke-width:13.95199966;stroke-linecap:butt;stroke-linejoin:miter;stroke-miterlimit:4;stroke-dasharray:none" />
  </g>
  <g
     id="g4811"
     style="fill:#ffff3e;stroke:#000000;stroke-width:14.79307087;stroke-miterlimit:4;stroke-dasharray:none">
    <path
       inkscape:connector-curvature="0"
       id="path3119-0-5-9-7-90"
       d="m 638.55375,144.0093 57.85747,169.68067 c -14.182,4.76082 -28.29228,10.0796 -42.30321,15.97696 -11.38499,4.79207 -22.53897,9.90343 -33.46757,15.30411 L 539.3856,185.63833 a 753.04196,753.04196 0 0 1 93.72825,-39.77231 c 1.8124,-0.62595 3.62561,-1.24506 5.4399,-1.85671 z"
       style="opacity:1;fill:#ffff3e;fill-opacity:1;stroke:#000000;stroke-width:14.79307087;stroke-linecap:round;stroke-linejoin:round;stroke-miterlimit:4;stroke-dasharray:none;stroke-dashoffset:0;stroke-opacity:1" />
    <path
       inkscape:connector-curvature="0"
       id="path3119-0-5-9-7-90-9"
       d="m 1127.3795,150.168 -57.8574,169.68067 c 14.182,4.76082 28.2923,10.0796 42.3032,15.97696 11.385,4.79207 22.539,9.90343 33.4676,15.30411 l 81.2548,-159.33271 a 753.04196,753.04196 0 0 0 -93.7283,-39.77231 c -1.8124,-0.62595 -3.6256,-1.24506 -5.4399,-1.85671 z"
       style="opacity:1;fill:#ffff3e;fill-opacity:1;stroke:#000000;stroke-width:14.79307087;stroke-linecap:round;stroke-linejoin:round;stroke-miterlimit:4;stroke-dasharray:none;stroke-dashoffset:0;stroke-opacity:1" />
    <path
       inkscape:connector-curvature="0"
       id="path3119-0-5-9-7-90-9-9"
       d="m 1121.3543,1598.3489 -57.8574,-169.6807 c 14.182,-4.7608 28.2923,-10.0796 42.3032,-15.977 11.385,-4.792 22.539,-9.9034 33.4676,-15.3041 l 81.2548,159.3327 a 753.04196,753.04196 0 0 1 -93.7283,39.7724 c -1.8124,0.6259 -3.6256,1.245 -5.4399,1.8567 z"
       style="opacity:1;fill:#ffff3e;fill-opacity:1;stroke:#000000;stroke-width:14.79307087;stroke-linecap:round;stroke-linejoin:round;stroke-miterlimit:4;stroke-dasharray:none;stroke-dashoffset:0;stroke-opacity:1" />
    <path
       inkscape:connector-curvature="0"
       id="path3119-0-5-9-7-90-9-9-1"
       d="m 632.4463,1602.0567 57.8574,-169.6807 c -14.182,-4.7608 -28.2923,-10.0796 -42.3032,-15.977 -11.385,-4.792 -22.539,-9.9034 -33.4676,-15.3041 l -81.2548,159.3327 a 753.04196,753.04196 0 0 0 93.7283,39.7724 c 1.8124,0.6259 3.6256,1.245 5.4399,1.8567 z"
       style="opacity:1;fill:#ffff3e;fill-opacity:1;stroke:#000000;stroke-width:14.79307087;stroke-linecap:round;stroke-linejoin:round;stroke-miterlimit:4;stroke-dasharray:none;stroke-dashoffset:0;stroke-opacity:1" />
    <path
       inkscape:connector-curvature="0"
       id="path3119-0-5-9-7-90-9-9-1-9"
       d="m 192.70649,1221.067 156.65827,-87.1619 c -7.33527,-13.038 -14.24336,-26.442 -20.68992,-40.2089 -5.23843,-11.1866 -10.09136,-22.4554 -14.58311,-33.788 l -167.08877,63.8012 a 753.04196,753.04196 0 0 0 42.91037,92.3339 c 0.92569,1.6792 1.85654,3.3538 2.79316,5.0237 z"
       style="opacity:1;fill:#ffff3e;fill-opacity:1;stroke:#000000;stroke-width:14.79307087;stroke-linecap:round;stroke-linejoin:round;stroke-miterlimit:4;stroke-dasharray:none;stroke-dashoffset:0;stroke-opacity:1" />
    <path
       inkscape:transform-center-y="-227.63093"
       inkscape:transform-center-x="20.387702"
       inkscape:connector-curvature="0"
       id="path3119-0-5-9-7-90-9-9-1-9-6"
       d="m 191.75724,527.53984 159.55465,81.73936 c -6.88393,13.28183 -13.32838,26.91481 -19.29912,40.89464 -4.8518,11.35964 -9.31551,22.7882 -13.41606,34.26815 L 149.41865,626.40722 a 753.04196,753.04196 0 0 1 39.71932,-93.75087 c 0.86757,-1.70995 1.74045,-3.41548 2.61927,-5.11651 z"
       style="opacity:1;fill:#ffff3e;fill-opacity:1;stroke:#000000;stroke-width:14.79307087;stroke-linecap:round;stroke-linejoin:round;stroke-miterlimit:4;stroke-dasharray:none;stroke-dashoffset:0;stroke-opacity:1" />
    <path
       inkscape:connector-curvature="0"
       id="path3119-0-5-9-7-90-9-7"
       d="m 1562.1937,535.83006 -159.964,80.93506 c 6.8169,13.3163 13.1927,26.98158 19.093,40.99123 4.7945,11.38399 9.2006,22.8349 13.2433,34.33525 l 169.4681,-57.1823 a 753.04196,753.04196 0 0 0 -39.2468,-93.94952 c -0.8589,-1.7143 -1.7232,-3.4243 -2.5936,-5.12971 z"
       style="opacity:1;fill:#ffff3e;fill-opacity:1;stroke:#000000;stroke-width:14.79307087;stroke-linecap:round;stroke-linejoin:round;stroke-miterlimit:4;stroke-dasharray:none;stroke-dashoffset:0;stroke-opacity:1" />
    <path
       inkscape:connector-curvature="0"
       id="path3119-0-5-9-7-90-9-7-0"
       d="m 1561.3687,1214.6232 -159.964,-80.9351 c 6.8169,-13.3163 13.1927,-26.9815 19.093,-40.9912 4.7945,-11.384 9.2006,-22.8349 13.2433,-34.3352 l 169.4681,57.1823 a 753.04196,753.04196 0 0 1 -39.2468,93.9495 c -0.8589,1.7143 -1.7232,3.4243 -2.5936,5.1297 z"
       style="opacity:1;fill:#ffff3e;fill-opacity:1;stroke:#000000;stroke-width:14.79307087;stroke-linecap:round;stroke-linejoin:round;stroke-miterlimit:4;stroke-dasharray:none;stroke-dashoffset:0;stroke-opacity:1" />
  </g>
</svg>
